# File produced by Open Asset Import Library (http://www.assimp.sf.net)
# (assimp v3.2.202087883)

mtllib model_normalized.mtl

# 96 vertex positions
v 0.171316 -0.354307 0.045906
v 0.171316 -0.354307 -0.045908
v 0.177360 -0.354307 0.000003
v 0.153598 -0.354307 -0.088683
v 0.237335 0.354307 0.000003
v 0.229249 0.354307 0.061428
v 0.153598 -0.354307 0.088681
v 0.229249 0.354307 -0.061430
v 0.125412 -0.354307 0.125415
v 0.205538 0.354307 -0.118669
v 0.240965 0.354307 -0.064566
v 0.240965 0.354307 0.064564
v 0.205538 0.354307 0.118667
v 0.125412 -0.354307 -0.125410
v 0.216044 0.354307 -0.124732
v 0.216044 0.354307 0.124730
v 0.167822 0.354307 0.167818
v 0.088680 -0.354307 -0.153601
v 0.167822 0.354307 -0.167820
v 0.176399 0.354307 -0.176400
v 0.249466 0.354307 0.000003
v 0.163838 -0.354307 -0.094589
v 0.163838 -0.354307 0.094595
v 0.176399 0.354307 0.176398
v 0.088680 -0.354307 0.153599
v 0.118668 0.354307 -0.205537
v 0.133773 -0.354307 -0.133774
v 0.182738 -0.354307 -0.048962
v 0.182738 -0.354307 0.048967
v 0.133773 -0.354307 0.133772
v 0.124733 0.354307 0.216045
v 0.118668 0.354307 0.205535
v 0.045904 -0.354307 0.171318
v 0.061427 0.354307 -0.229252
v 0.124733 0.354307 -0.216047
v 0.094592 -0.354307 -0.163835
v 0.189184 -0.354307 0.000003
v 0.045904 -0.354307 -0.171320
v 0.064567 0.354307 -0.240968
v 0.094592 -0.354307 0.163840
v 0.064567 0.354307 0.240966
v 0.061427 0.354307 0.229250
v -0.000000 -0.354307 0.177359
v -0.000000 0.354307 -0.237334
v -0.000000 0.354307 -0.249467
v 0.048964 -0.354307 -0.182738
v -0.000000 -0.354307 -0.177361
v -0.000000 -0.354307 -0.189181
v 0.048964 -0.354307 0.182736
v -0.000000 0.354307 0.249465
v -0.000000 0.354307 0.237332
v -0.045904 -0.354307 0.171318
v -0.061427 0.354307 -0.229252
v -0.048964 -0.354307 -0.182738
v -0.045904 -0.354307 -0.171320
v -0.064566 0.354307 -0.240968
v -0.000000 -0.354307 0.189187
v -0.064566 0.354307 0.240966
v -0.061427 0.354307 0.229250
v -0.088680 -0.354307 0.153599
v -0.118668 0.354307 -0.205537
v -0.094592 -0.354307 -0.163835
v -0.088680 -0.354307 -0.153601
v -0.124733 0.354307 -0.216047
v -0.048964 -0.354307 0.182736
v -0.118668 0.354307 0.205535
v -0.125413 -0.354307 -0.125410
v -0.167822 0.354307 -0.167820
v -0.133773 -0.354307 -0.133774
v -0.124733 0.354307 0.216045
v -0.125413 -0.354307 0.125415
v -0.176399 0.354307 -0.176400
v -0.094592 -0.354307 0.163840
v -0.167822 0.354307 0.167818
v -0.153598 -0.354307 0.088681
v -0.205539 0.354307 -0.118669
v -0.216044 0.354307 -0.124732
v -0.176399 0.354307 0.176398
v -0.205539 0.354307 0.118667
v -0.153598 -0.354307 -0.088683
v -0.163838 -0.354307 -0.094589
v -0.133773 -0.354307 0.133772
v -0.229248 0.354307 0.061428
v -0.171317 -0.354307 -0.045908
v -0.229248 0.354307 -0.061430
v -0.240965 0.354307 -0.064566
v -0.216044 0.354307 0.124730
v -0.171317 -0.354307 0.045906
v -0.182738 -0.354307 -0.048962
v -0.163838 -0.354307 0.094595
v -0.237336 0.354307 0.000003
v -0.240965 0.354307 0.064564
v -0.177360 -0.354307 0.000003
v -0.249466 0.354307 0.000003
v -0.189184 -0.354307 0.000003
v -0.182738 -0.354307 0.048967

# 0 UV coordinates

# 98 vertex normals
vn 0 -0.0254 0
vn 0 0.0254 0
vn 0.0244471 -0.00214216 -0.00655058
vn 0.0253095 -0.00214216 0
vn -0.0253095 0.00214216 0
vn -0.0244471 0.00214216 0.00655058
vn 0.0244471 -0.00214216 0.00655058
vn -0.0244471 0.00214216 -0.00655058
vn 0.0219187 -0.00214216 -0.0126548
vn -0.0219187 0.00214216 0.0126548
vn 0.0219187 -0.00214216 0.0126548
vn -0.0219187 0.00214216 -0.0126548
vn 0.0178965 -0.00214216 0.0178965
vn -0.0178965 0.00214216 -0.0178965
vn 0.0178965 -0.00214216 -0.0178965
vn -0.0178965 0.00214216 0.0178965
vn -0.0219179 0.00215301 0.0126543
vn -0.0244462 0.00215301 0.00655035
vn 0.0219179 -0.00215301 -0.0126543
vn 0.0244462 -0.00215301 -0.00655035
vn -0.0244462 0.00215301 -0.00655035
vn -0.0219179 0.00215301 -0.0126543
vn 0.0219179 -0.00215301 0.0126543
vn 0.0244462 -0.00215301 0.00655035
vn 0.0126548 -0.00214216 0.0219187
vn -0.0126548 0.00214216 -0.0219187
vn 0.0126548 -0.00214216 -0.0219187
vn -0.0126548 0.00214216 0.0219187
vn -0.0178959 0.00215301 0.0178959
vn 0.0178959 -0.00215301 -0.0178959
vn -0.0253086 0.00215301 0
vn 0.0253086 -0.00215301 0
vn -0.0178959 0.00215301 -0.0178959
vn 0.0178959 -0.00215301 0.0178959
vn 0.00655058 -0.00214216 -0.0244471
vn -0.00655058 0.00214216 0.0244471
vn -0.0126543 0.00215301 0.0219179
vn 0.0126543 -0.00215301 -0.0219179
vn -0.0126543 0.00215301 -0.0219179
vn 0.0126543 -0.00215301 0.0219179
vn 0.00655058 -0.00214216 0.0244471
vn -0.00655058 0.00214216 -0.0244471
vn -0 -0.00214216 -0.0253095
vn 0 0.00214216 0.0253095
vn -0.00655035 0.00215301 0.0244462
vn 0.00655035 -0.00215301 -0.0244462
vn -0.00655035 0.00215301 -0.0244462
vn 0.00655035 -0.00215301 0.0244462
vn 0 -0.00214216 0.0253095
vn 0 0.00214216 -0.0253095
vn 0 0.00215301 0.0253086
vn -0 -0.00215301 -0.0253086
vn -0.00655058 -0.00214216 -0.0244471
vn 0.00655058 0.00214216 0.0244471
vn 0.00655035 0.00215301 0.0244462
vn -0.00655035 -0.00215301 -0.0244462
vn 0 0.00215301 -0.0253086
vn 0 -0.00215301 0.0253086
vn -0.00655058 -0.00214216 0.0244471
vn 0.00655058 0.00214216 -0.0244471
vn -0.0126548 -0.00214216 -0.0219187
vn 0.0126548 0.00214216 0.0219187
vn 0.0126543 0.00215301 0.0219179
vn -0.0126543 -0.00215301 -0.0219179
vn 0.00655035 0.00215301 -0.0244462
vn -0.00655035 -0.00215301 0.0244462
vn -0.0126548 -0.00214216 0.0219187
vn 0.0126548 0.00214216 -0.0219187
vn -0.0178965 -0.00214216 -0.0178965
vn 0.0178965 0.00214216 0.0178965
vn 0.0178959 0.00215301 0.0178959
vn -0.0178959 -0.00215301 -0.0178959
vn 0.0126543 0.00215301 -0.0219179
vn -0.0126543 -0.00215301 0.0219179
vn -0.0178965 -0.00214216 0.0178965
vn 0.0178965 0.00214216 -0.0178965
vn -0.0219187 -0.00214216 -0.0126548
vn 0.0219187 0.00214216 0.0126548
vn 0.0219179 0.00215301 0.0126543
vn -0.0219179 -0.00215301 -0.0126543
vn 0.0178959 0.00215301 -0.0178959
vn -0.0178959 -0.00215301 0.0178959
vn -0.0219187 -0.00214216 0.0126548
vn 0.0219187 0.00214216 -0.0126548
vn -0.0244471 -0.00214216 0.00655058
vn 0.0244471 0.00214216 -0.00655058
vn -0.0244471 -0.00214216 -0.00655058
vn 0.0244471 0.00214216 0.00655058
vn 0.0244462 0.00215301 0.00655035
vn -0.0244462 -0.00215301 -0.00655035
vn 0.0219179 0.00215301 -0.0126543
vn -0.0219179 -0.00215301 0.0126543
vn -0.0253095 -0.00214216 0
vn 0.0253095 0.00214216 0
vn 0.0253086 0.00215301 0
vn -0.0253086 -0.00215301 0
vn 0.0244462 0.00215301 -0.00655035
vn -0.0244462 -0.00215301 0.00655035

# Mesh 'mesh1_mesh1-geometry' with 332 faces
g mesh1_mesh1-geometry
usemtl material_0_24
f  1//1 2//1 3//1
f  2//1 1//1 4//1
f  3//2 2//2 1//2
f  4//2 1//2 2//2
f  2//3 5//4 3//4
f  3//5 5//5 2//6
f  3//4 6//7 1//7
f  1//8 6//8 3//5
f  4//1 1//1 7//1
f  7//2 1//2 4//2
f  4//9 8//3 2//3
f  2//6 8//6 4//10
f  5//4 2//3 8//3
f  8//6 2//6 5//5
f  6//7 3//4 5//4
f  5//5 3//5 6//8
f  6//7 7//11 1//7
f  1//8 7//12 6//8
f  4//1 7//1 9//1
f  9//2 7//2 4//2
f  8//3 4//9 10//9
f  10//10 4//10 8//6
f  11//1 5//1 8//1
f  8//2 5//2 11//2
f  12//1 6//1 5//1
f  5//2 6//2 12//2
f  7//11 6//7 13//11
f  13//12 6//8 7//12
f  13//11 9//13 7//11
f  7//12 9//14 13//12
f  4//1 9//1 14//1
f  14//2 9//2 4//2
f  14//15 10//9 4//9
f  4//10 10//10 14//16
f  15//1 8//1 10//1
f  10//2 8//2 15//2
f  11//1 12//1 5//1
f  5//2 12//2 11//2
f  11//1 8//1 15//1
f  15//2 8//2 11//2
f  6//1 12//1 16//1
f  16//2 12//2 6//2
f  6//1 16//1 13//1
f  13//2 16//2 6//2
f  9//13 13//11 17//13
f  17//14 13//12 9//14
f  14//1 9//1 18//1
f  18//2 9//2 14//2
f  10//9 14//15 19//15
f  19//16 14//16 10//10
f  15//1 10//1 20//1
f  20//2 10//2 15//2
f  12//1 11//1 21//1
f  21//2 11//2 12//2
f  22//17 11//18 15//17
f  15//19 11//20 22//19
f  12//21 23//22 16//22
f  16//23 23//23 12//24
f  13//1 16//1 24//1
f  24//2 16//2 13//2
f  13//1 24//1 17//1
f  17//2 24//2 13//2
f  17//13 25//25 9//13
f  9//14 25//26 17//14
f  18//1 9//1 25//1
f  25//2 9//2 18//2
f  26//27 14//15 18//27
f  18//28 14//16 26//28
f  14//15 26//27 19//15
f  19//16 26//28 14//16
f  20//1 10//1 19//1
f  19//2 10//2 20//2
f  27//29 15//17 20//29
f  20//30 15//19 27//30
f  28//18 21//31 11//18
f  11//20 21//32 28//20
f  21//31 29//21 12//21
f  12//24 29//24 21//32
f  11//18 22//17 28//18
f  28//20 22//19 11//20
f  15//17 27//29 22//17
f  22//19 27//30 15//19
f  23//22 12//21 29//21
f  29//24 12//24 23//23
f  30//33 16//22 23//22
f  23//23 16//23 30//34
f  16//22 30//33 24//33
f  24//34 30//34 16//23
f  17//1 24//1 31//1
f  31//2 24//2 17//2
f  25//25 17//13 32//25
f  32//26 17//14 25//26
f  18//1 25//1 33//1
f  33//2 25//2 18//2
f  18//27 34//35 26//27
f  26//28 34//36 18//28
f  35//1 19//1 26//1
f  26//2 19//2 35//2
f  20//1 19//1 35//1
f  35//2 19//2 20//2
f  20//29 36//37 27//29
f  27//30 36//38 20//30
f  21//31 28//18 37//31
f  37//32 28//20 21//32
f  29//21 21//31 37//31
f  37//32 21//32 29//24
f  30//33 31//39 24//33
f  24//34 31//40 30//34
f  17//1 31//1 32//1
f  32//2 31//2 17//2
f  32//25 33//41 25//25
f  25//26 33//42 32//26
f  18//1 33//1 38//1
f  38//2 33//2 18//2
f  34//35 18//27 38//35
f  38//36 18//28 34//36
f  39//1 26//1 34//1
f  34//2 26//2 39//2
f  35//1 26//1 39//1
f  39//2 26//2 35//2
f  36//37 20//29 35//37
f  35//38 20//30 36//38
f  31//39 30//33 40//39
f  40//40 30//34 31//40
f  32//1 31//1 41//1
f  41//2 31//2 32//2
f  33//41 32//25 42//41
f  42//42 32//26 33//42
f  38//1 33//1 43//1
f  43//2 33//2 38//2
f  38//35 44//43 34//35
f  34//36 44//44 38//36
f  39//1 34//1 45//1
f  45//2 34//2 39//2
f  46//45 35//37 39//45
f  39//46 35//38 46//46
f  35//37 46//45 36//37
f  36//38 46//46 35//38
f  40//39 41//47 31//39
f  31//40 41//48 40//40
f  32//1 41//1 42//1
f  42//2 41//2 32//2
f  42//41 43//49 33//41
f  33//42 43//50 42//42
f  38//1 43//1 47//1
f  47//2 43//2 38//2
f  44//43 38//35 47//43
f  47//44 38//36 44//44
f  45//1 34//1 44//1
f  44//2 34//2 45//2
f  48//51 39//45 45//51
f  45//52 39//46 48//52
f  39//45 48//51 46//45
f  46//46 48//52 39//46
f  41//47 40//39 49//47
f  49//48 40//40 41//48
f  42//1 41//1 50//1
f  50//2 41//2 42//2
f  43//49 42//41 51//49
f  51//50 42//42 43//50
f  47//1 43//1 52//1
f  52//2 43//2 47//2
f  47//43 53//53 44//43
f  44//44 53//54 47//44
f  45//1 44//1 53//1
f  53//2 44//2 45//2
f  45//51 54//55 48//51
f  48//52 54//56 45//52
f  49//47 50//57 41//47
f  41//48 50//58 49//48
f  42//1 50//1 51//1
f  51//2 50//2 42//2
f  51//49 52//59 43//49
f  43//50 52//60 51//50
f  47//1 52//1 55//1
f  55//2 52//2 47//2
f  53//53 47//43 55//53
f  55//54 47//44 53//54
f  45//1 53//1 56//1
f  56//2 53//2 45//2
f  54//55 45//51 56//55
f  56//56 45//52 54//56
f  50//57 49//47 57//57
f  57//58 49//48 50//58
f  51//1 50//1 58//1
f  58//2 50//2 51//2
f  52//59 51//49 59//59
f  59//60 51//50 52//60
f  55//1 52//1 60//1
f  60//2 52//2 55//2
f  55//53 61//61 53//53
f  53//54 61//62 55//54
f  56//1 53//1 61//1
f  61//2 53//2 56//2
f  56//55 62//63 54//55
f  54//56 62//64 56//56
f  57//57 58//65 50//57
f  50//58 58//66 57//58
f  51//1 58//1 59//1
f  59//2 58//2 51//2
f  59//59 60//67 52//59
f  52//60 60//68 59//60
f  55//1 60//1 63//1
f  63//2 60//2 55//2
f  61//61 55//53 63//61
f  63//62 55//54 61//62
f  56//1 61//1 64//1
f  64//2 61//2 56//2
f  62//63 56//55 64//63
f  64//64 56//56 62//64
f  58//65 57//57 65//65
f  65//66 57//58 58//66
f  59//1 58//1 66//1
f  66//2 58//2 59//2
f  60//67 59//59 66//67
f  66//68 59//60 60//68
f  63//1 60//1 67//1
f  67//2 60//2 63//2
f  63//61 68//69 61//61
f  61//62 68//70 63//62
f  64//1 61//1 68//1
f  68//2 61//2 64//2
f  64//63 69//71 62//63
f  62//64 69//72 64//64
f  65//65 70//73 58//65
f  58//66 70//74 65//66
f  66//1 58//1 70//1
f  70//2 58//2 66//2
f  66//67 71//75 60//67
f  60//68 71//76 66//68
f  67//1 60//1 71//1
f  71//2 60//2 67//2
f  68//69 63//61 67//69
f  67//70 63//62 68//70
f  64//1 68//1 72//1
f  72//2 68//2 64//2
f  69//71 64//63 72//71
f  72//72 64//64 69//72
f  70//73 65//65 73//73
f  73//74 65//66 70//74
f  66//1 70//1 74//1
f  74//2 70//2 66//2
f  71//75 66//67 74//75
f  74//76 66//68 71//76
f  67//1 71//1 75//1
f  75//2 71//2 67//2
f  67//69 76//77 68//69
f  68//70 76//78 67//70
f  72//1 68//1 76//1
f  76//2 68//2 72//2
f  77//79 69//71 72//71
f  72//72 69//72 77//80
f  73//73 78//81 70//73
f  70//74 78//82 73//74
f  74//1 70//1 78//1
f  78//2 70//2 74//2
f  79//83 71//75 74//75
f  74//76 71//76 79//84
f  71//75 79//83 75//83
f  75//84 79//84 71//76
f  67//1 75//1 80//1
f  80//2 75//2 67//2
f  76//77 67//69 80//77
f  80//78 67//70 76//78
f  72//1 76//1 77//1
f  77//2 76//2 72//2
f  69//71 77//79 81//79
f  81//80 77//80 69//72
f  78//81 73//73 82//81
f  82//82 73//74 78//82
f  74//1 78//1 79//1
f  79//2 78//2 74//2
f  83//85 75//83 79//83
f  79//84 75//84 83//86
f  80//1 75//1 84//1
f  84//2 75//2 80//2
f  80//77 85//87 76//77
f  76//78 85//88 80//78
f  77//1 76//1 85//1
f  85//2 76//2 77//2
f  86//89 81//79 77//79
f  77//80 81//80 86//90
f  82//81 87//91 78//81
f  78//82 87//92 82//82
f  79//1 78//1 87//1
f  87//2 78//2 79//2
f  75//83 83//85 88//85
f  88//86 83//86 75//84
f  79//1 87//1 83//1
f  83//2 87//2 79//2
f  84//1 75//1 88//1
f  88//2 75//2 84//2
f  85//87 80//77 84//87
f  84//88 80//78 85//88
f  77//1 85//1 86//1
f  86//2 85//2 77//2
f  81//79 86//89 89//89
f  89//90 86//90 81//80
f  87//91 82//81 90//91
f  90//92 82//82 87//92
f  91//93 88//85 83//85
f  83//86 88//86 91//94
f  83//1 87//1 92//1
f  92//2 87//2 83//2
f  84//1 88//1 93//1
f  93//2 88//2 84//2
f  84//87 91//93 85//87
f  85//88 91//94 84//88
f  86//1 85//1 91//1
f  91//2 85//2 86//2
f  94//95 89//89 86//89
f  86//90 89//90 94//96
f  90//91 92//97 87//91
f  87//92 92//98 90//92
f  88//85 91//93 93//93
f  93//94 91//94 88//86
f  83//1 92//1 91//1
f  91//2 92//2 83//2
f  91//93 84//87 93//93
f  93//94 84//88 91//94
f  86//1 91//1 92//1
f  92//2 91//2 86//2
f  89//89 94//95 95//95
f  95//96 94//96 89//90
f  86//1 92//1 94//1
f  94//2 92//2 86//2
f  92//97 90//91 96//97
f  96//98 90//92 92//98
f  92//97 95//95 94//95
f  94//96 95//96 92//98
f  95//95 92//97 96//97
f  96//98 92//98 95//96

# Mesh 'mesh2_mesh2-geometry' with 24 faces
g mesh2_mesh2-geometry
usemtl material_1_0
l  14 4
l  18 14
l  4 2
l  38 18
l  2 3
l  47 38
l  3 1
l  55 47
l  1 7
l  63 55
l  7 9
l  67 63
l  9 25
l  80 67
l  25 33
l  84 80
l  33 43
l  93 84
l  43 52
l  88 93
l  52 60
l  75 88
l  60 71
l  71 75

# Mesh 'mesh3_mesh3-geometry' with 24 faces
g mesh3_mesh3-geometry
usemtl material_1_0
l  13 6
l  17 13
l  6 5
l  32 17
l  5 8
l  42 32
l  8 10
l  51 42
l  10 19
l  59 51
l  19 26
l  66 59
l  26 34
l  74 66
l  34 44
l  79 74
l  44 53
l  83 79
l  53 61
l  91 83
l  61 68
l  85 91
l  68 76
l  76 85

# Mesh 'mesh4_mesh4-geometry' with 24 faces
g mesh4_mesh4-geometry
usemtl material_1_0
l  87 78
l  92 87
l  78 70
l  94 92
l  70 58
l  86 94
l  58 50
l  77 86
l  50 41
l  72 77
l  41 31
l  64 72
l  31 24
l  56 64
l  24 16
l  45 56
l  16 12
l  39 45
l  12 21
l  35 39
l  21 11
l  20 35
l  11 15
l  15 20

